<svg id="visual" viewBox="0 0 960 540" width="960" height="540" xmlns="http://www.w3.org/2000/svg" xmlns:xlink="http://www.w3.org/1999/xlink" version="1.1"><path d="M0 338L32 340C64 342 128 346 192 351.3C256 356.7 320 363.3 384 354C448 344.7 512 319.3 576 319.3C640 319.3 704 344.7 768 343.3C832 342 896 314 928 300L960 286L960 541L928 541C896 541 832 541 768 541C704 541 640 541 576 541C512 541 448 541 384 541C320 541 256 541 192 541C128 541 64 541 32 541L0 541Z" fill="#ffc797"></path><path d="M0 329L32 327.7C64 326.3 128 323.7 192 331.8C256 340 320 359 384 367.7C448 376.3 512 374.7 576 377.2C640 379.7 704 386.3 768 383.2C832 380 896 367 928 360.5L960 354L960 541L928 541C896 541 832 541 768 541C704 541 640 541 576 541C512 541 448 541 384 541C320 541 256 541 192 541C128 541 64 541 32 541L0 541Z" fill="#ffbc81"></path><path d="M0 430L32 425.5C64 421 128 412 192 405.5C256 399 320 395 384 396.3C448 397.7 512 404.3 576 400.5C640 396.7 704 382.3 768 377.2C832 372 896 376 928 378L960 380L960 541L928 541C896 541 832 541 768 541C704 541 640 541 576 541C512 541 448 541 384 541C320 541 256 541 192 541C128 541 64 541 32 541L0 541Z" fill="#ffb06b"></path><path d="M0 433L32 438.2C64 443.3 128 453.7 192 451C256 448.3 320 432.7 384 428.5C448 424.3 512 431.7 576 438.8C640 446 704 453 768 454C832 455 896 450 928 447.5L960 445L960 541L928 541C896 541 832 541 768 541C704 541 640 541 576 541C512 541 448 541 384 541C320 541 256 541 192 541C128 541 64 541 32 541L0 541Z" fill="#ffa455"></path><path d="M0 492L32 493.7C64 495.3 128 498.7 192 501.3C256 504 320 506 384 503.7C448 501.3 512 494.7 576 494.3C640 494 704 500 768 501.7C832 503.3 896 500.7 928 499.3L960 498L960 541L928 541C896 541 832 541 768 541C704 541 640 541 576 541C512 541 448 541 384 541C320 541 256 541 192 541C128 541 64 541 32 541L0 541Z" fill="#ff983e"></path></svg>